:SAMPLES-PER-SECOND 30
:FULLY-SPECIFIED
:DEGREES
478
root  -20.0004 35.1902 -23.461 143.081 -37.479 -62.0479
Spine  26.6652 21.889 39.6007
Spine1  25.8585 -40.3873 -42.687
Neck  3.97569e-016 0 -2.38542e-015
Head  4.85046 21.3608 38.2182
R_Clavicle  -0.556538 17.7493 -0.714324
R_UpperArm  66.4279 47.464 53.0708
R_Forearm  45.2832 4.74971 -3.98531
R_Hand  -4.50058 15.6185 -37.1359
L_Clavicle  -7.43096 -7.04259 37.1066
L_UpperArm  -50.2706 -75.6681 10.5453
L_Forearm  -1.00813 9.52536 18.65
L_Hand  19.6169 -39.4178 -57.1506
L_Thigh  -28.5283 26.7284 53.4212
L_Calf  -1.58847 -3.81178 28.3381
L_Foot  2.31909 5.38916 3.94004
L_Toe0  0.505293 0.0372468 -6.13591
R_Thigh  -15.7681 -55.7092 16.7918
R_Calf  18.3707 -11.0452 -37.2402
R_Foot  -2.40064 -1.0945 15.9504
R_Toe0  -1.78853 -0.272787 -17.3235
479
root  -21.7051 34.8954 -24.6879 127.545 -29.7033 -60.4526
Spine  27.5077 25.1707 37.2161
Spine1  23.8666 -39.9626 -39.4223
Neck  3.97569e-016 0 -2.38542e-015
Head  -4.17966 20.1789 41.8555
R_Clavicle  -0.506657 12.9095 -0.988944
R_UpperArm  73.5509 34.1224 63.9544
R_Forearm  49.8613 6.51618 -5.47197
R_Hand  -5.55302 11.4869 -47.5104
L_Clavicle  -7.08716 -3.51498 40.7954
L_UpperArm  -59.7174 -79.7631 25.2885
L_Forearm  3.94291 11.1933 15.1887
L_Hand  16.8579 -38.3945 -51.5729
L_Thigh  -23.1932 21.1798 54.0183
L_Calf  -2.66511 -3.52129 26.3403
L_Foot  1.78815 5.58811 1.63344
L_Toe0  0.505292 0.0372302 -6.13591
R_Thigh  -8.26055 -53.3955 5.74136
R_Calf  13.6138 -8.33259 -27.0973
R_Foot  -2.12103 -1.71483 11.9846
R_Toe0  -1.78853 -0.272787 -17.3235
480
root  -23.9544 34.666 -25.0375 111.625 -22.4165 -60.0682
Spine  28.0758 28.7545 33.2832
Spine1  20.8672 -36.2693 -34.3352
Neck  3.97569e-016 0 -2.38542e-015
Head  -13.0672 15.5901 47.6177
R_Clavicle  0.174743 8.03617 1.24944
R_UpperArm  83.8171 24.9039 69.4097
R_Forearm  50.1086 8.08604 -6.80539
R_Hand  -6.58809 10.9031 -54.5358
L_Clavicle  -6.353 -2.05666 39.3511
L_UpperArm  -75.0222 -78.8164 50.6841
L_Forearm  14.9567 15.0638 11.7769
L_Hand  14.5381 -38.1555 -45.3203
L_Thigh  -18.7476 17.6172 46.6346
L_Calf  -2.9977 -4.65592 32.0694
L_Foot  1.43886 7.46543 -1.4464
L_Toe0  0.505291 0.0372134 -6.13592
R_Thigh  0.28503 -49.9461 -7.47622
R_Calf  4.33908 -2.14782 -6.8563
R_Foot  -0.0042046 1.03307 2.48188
R_Toe0  -1.78853 -0.272787 -17.3235
481
root  -25.7338 34.8038 -24.2928 91.8464 -15.3926 -60.7828
Spine  25.6251 28.5611 27.9565
Spine1  17.5609 -28.1432 -29.5098
Neck  3.97569e-016 0 -2.38542e-015
Head  -19.7071 10.736 50.5996
R_Clavicle  0.588279 6.56905 2.83706
R_UpperArm  96.0561 18.2291 69.834
R_Forearm  48.5735 10.4301 -8.82467
R_Hand  -7.38319 11.6859 -57.5954
L_Clavicle  -5.38941 -2.60761 32.847
L_UpperArm  -80.2608 -67.8818 69.2404
L_Forearm  28.9523 18.1625 10.1909
L_Hand  13.3172 -35.0899 -46.175
L_Thigh  -9.50868 20.9086 33.0027
L_Calf  -8.61775 -7.4069 41.9295
L_Foot  0.97767 11.722 -6.21589
L_Toe0  0.50529 0.0371964 -6.13592
R_Thigh  6.90534 -44.4545 -19.4833
R_Calf  -2.25049 5.76356 18.1293
R_Foot  2.49237 6.66981 -11.3147
R_Toe0  -1.78853 -0.272787 -17.3235
482
root  -26.359 35.6008 -23.1708 68.6721 -11.457 -63.251
Spine  20.3668 23.1416 21.4396
Spine1  14.2718 -17.547 -27.7086
Neck  3.97569e-016 0 -2.38542e-015
Head  -24.1425 5.70296 50.2134
R_Clavicle  1.00742 8.50653 4.36376
R_UpperArm  103.214 17.3295 66.2994
R_Forearm  45.794 11.186 -9.48507
R_Hand  -7.23702 10.6977 -58.7308
L_Clavicle  -5.64949 -5.73231 30.6529
L_UpperArm  -72.7923 -48.6092 74.8154
L_Forearm  41.4813 16.2738 8.76716
L_Hand  16.1862 -36.4744 -52.0899
L_Thigh  -3.05802 28.9815 18.8658
L_Calf  -16.2378 -7.12005 47.93
L_Foot  0.424381 16.8562 -10.7702
L_Toe0  0.50529 0.0371791 -6.13592
R_Thigh  15.4694 -38.6475 -26.6621
R_Calf  -7.3571 10.8737 36.7828
R_Foot  3.70812 13.6465 -22.8822
R_Toe0  -1.78853 -0.272787 -17.3235
483
root  -26.1214 36.7298 -22.394 43.5049 -11.8182 -63.9891
Spine  14.1377 14.6037 13.4557
Spine1  10.2911 -7.04491 -27.5944
Neck  3.97569e-016 0 -2.38542e-015
Head  -27.2752 0.271246 49.3432
R_Clavicle  1.07234 9.95313 4.46584
R_UpperArm  104.554 24.281 65.5661
R_Forearm  40.115 6.79298 -5.70824
R_Hand  -7.57325 12.6608 -56.8016
L_Clavicle  -5.34976 -10.4161 23.959
L_UpperArm  -60.7712 -15.5692 83.5757
L_Forearm  37.0089 6.30981 2.52237
L_Hand  17.5607 -48.683 -44.2846
L_Thigh  -9.46452 35.8875 5.67393
L_Calf  -16.0433 -5.46931 48.2769
L_Foot  1.20591 20.8558 -10.277
L_Toe0  0.505289 0.0371616 -6.13592
R_Thigh  23.8635 -33.8685 -28.7891
R_Calf  -12.2066 12.0928 43.3648
R_Foot  3.9338 20.3554 -27.9035
R_Toe0  -1.78853 -0.272787 -17.3235
484
root  -25.6984 37.739 -22.1688 18.1516 -12.6699 -59.7081
Spine  8.87806 8.50993 4.37583
Spine1  6.48456 -2.31704 -27.3728
Neck  3.97569e-016 0 -2.38542e-015
Head  -29.8459 -3.96058 49.3745
R_Clavicle  0.234771 12.7641 1.3997
R_UpperArm  102.745 29.4486 71.152
R_Forearm  31.9962 -1.38008 1.1202
R_Hand  -6.82564 15.4538 -49.2593
L_Clavicle  1.648 -13.5868 -4.62009
L_UpperArm  -58.4337 -1.37199 120.967
L_Forearm  -13.4222 8.04102 8.22865
L_Hand  1.41555 -32.5912 1.17891
L_Thigh  -15.1409 37.4765 -5.04237
L_Calf  -15.8588 -6.21517 47.8718
L_Foot  3.67799 22.1695 -4.29101
L_Toe0  0.505288 0.0371439 -6.13592
R_Thigh  23.5183 -32.0141 -28.1151
R_Calf  -12.2062 12.2522 44.6003
R_Foot  3.95899 25.0913 -29.2896
R_Toe0  -1.78853 -0.272787 -17.3235
485
root  -25.5167 38.2084 -22.3491 -5.25977 -9.92345 -51.8349
Spine  5.21226 7.19539 -2.90926
Spine1  4.18977 -4.646 -29.5961
Neck  3.97569e-016 0 -2.38542e-015
Head  -30.9304 -5.88724 49.9319
R_Clavicle  0.233915 21.2507 1.64025
R_UpperArm  97.0876 28.4806 72.8536
R_Forearm  19.2667 -9.41143 7.83265
R_Hand  -5.44857 14.6088 -43.0429
L_Clavicle  0.748384 -4.55043 -3.24995
L_UpperArm  -57.9007 -22.7761 111.463
L_Forearm  -15.8386 37.842 73.0572
L_Hand  -0.0331996 -7.67271 -18.6256
L_Thigh  -15.3169 35.1917 -8.25597
L_Calf  -16.3491 -6.62902 48.6087
L_Foot  5.90101 21.3461 1.90573
L_Toe0  0.505287 0.037126 -6.13592
R_Thigh  22.2296 -33.1688 -24.3001
R_Calf  -14.6375 12.1797 44.1834
R_Foot  3.93904 27.6265 -29.9845
R_Toe0  -1.78853 -0.272787 -17.3235
486
root  -25.5661 37.9073 -22.802 -26.2156 -2.82368 -44.2859
Spine  2.63134 6.58442 -7.46064
Spine1  3.28327 -8.704 -34.8734
Neck  3.97569e-016 0 -2.38542e-015
Head  -30.4889 -5.92479 50.2075
R_Clavicle  2.92723 26.0318 8.35168
R_UpperArm  91.0034 28.073 69.9611
R_Forearm  6.98489 -14.7371 13.3073
R_Hand  -4.7922 14.1976 -39.6269
L_Clavicle  -0.248551 -3.41679 1.07991
L_UpperArm  -57.9757 -25.118 99.9033
L_Forearm  -21.6697 36.7493 66.6545
L_Hand  1.00612 -10.7175 -21.2741
L_Thigh  -13.5517 34.5646 -5.86698
L_Calf  -18.5654 -6.47835 49.2237
L_Foot  6.74071 20.9226 4.34797
L_Toe0  0.505286 0.0371078 -6.13592
R_Thigh  19.9933 -34.7319 -17.3832
R_Calf  -17.6481 12.0561 42.7493
R_Foot  4.03193 28.2142 -29.4499
R_Toe0  -1.78853 -0.272787 -17.3235
487
root  -25.8282 36.8692 -23.3911 -44.5923 6.33653 -40.653
Spine  -0.353995 3.74259 -10.2125
Spine1  1.78759 -11.0273 -39.3219
Neck  3.97569e-016 0 -2.38542e-015
Head  -29.2772 -4.62272 49.138
R_Clavicle  3.75403 19.8475 11.4743
R_UpperArm  78.4468 22.7324 74.5398
R_Forearm  -12.9894 -9.16495 8.52759
R_Hand  -4.1786 20.6744 -37.4213
L_Clavicle  -0.689917 6.69301 8.14647
L_UpperArm  -66.4274 -38.5019 97.6958
L_Forearm  -19.3857 39.3291 65.7609
L_Hand  0.909209 -10.3519 -20.819
L_Thigh  -14.1719 37.5665 -3.76915
L_Calf  -20.5887 -6.38279 49.4528
L_Foot  7.02011 21.0252 4.99379
L_Toe0  0.505285 0.0370895 -6.13592
R_Thigh  13.218 -34.9451 -10.8256
R_Calf  -16.6976 11.8053 42.5848
R_Foot  4.31277 26.962 -27.074
R_Toe0  -1.78853 -0.272787 -17.3235
488
root  -26.2804 35.2956 -23.6155 -59.7817 14.3229 -40.8772
Spine  -4.99869 -2.34641 -10.7056
Spine1  -2.88949 -9.08616 -41.4165
Neck  3.97569e-016 0 -2.38542e-015
Head  -27.5204 -3.18136 45.8589
R_Clavicle  2.83206 14.1704 9.79581
R_UpperArm  62.0693 18.2662 79.1552
R_Forearm  -58.9364 -11.7933 2.08537
R_Hand  -24.1399 41.8537 -70.0347
L_Clavicle  -1.37354 -2.84523 8.56049
L_UpperArm  -60.093 -43.11 74.3345
L_Forearm  -12.8002 38.2876 66.1294
L_Hand  1.001 -10.2554 -23.3145
L_Thigh  -15.7832 42.4263 -2.0758
L_Calf  -21.0964 -5.91845 49.6342
L_Foot  7.35432 20.1968 6.46646
L_Toe0  0.505284 0.037071 -6.13592
R_Thigh  4.53543 -34.8349 -6.15742
R_Calf  -13.7442 11.7101 42.0695
R_Foot  4.5825 24.4252 -23.5501
R_Toe0  -1.78853 -0.272787 -17.3235
489
root  -26.563 33.4435 -23.1062 -71.3052 21.0544 -42.1075
Spine  -10.5513 -13.4741 -8.22173
Spine1  -11.6118 2.03742 -42.1376
Neck  3.97569e-016 0 -2.38542e-015
Head  -26.8857 -3.46151 40.2915
R_Clavicle  3.06695 13.9245 10.6488
R_UpperArm  60.9472 22.6013 75.2031
R_Forearm  -51.5942 -9.37761 -1.23341
R_Hand  -25.5583 38.9865 -76.8219
L_Clavicle  -1.12556 -0.297555 8.04089
L_UpperArm  -60.1964 -53.6281 61.3342
L_Forearm  -8.02506 38.2278 66.1499
L_Hand  0.803439 -9.44091 -22.6967
L_Thigh  -14.8041 46.7608 3.75688
L_Calf  -20.9092 -5.16282 50.11
L_Foot  7.45882 19.0185 7.65244
L_Toe0  0.505283 0.0370523 -6.13593
R_Thigh  0.169182 -35.7248 -2.06858
R_Calf  -12.1769 11.8349 40.4404
R_Foot  4.73473 22.5347 -20.3596
R_Toe0  -1.78853 -0.272787 -17.3235
490
root  -26.2461 31.711 -22.0777 -80.0242 28.0842 -42.7348
Spine  -16.338 -25.2212 -2.92264
Spine1  -22.047 18.4579 -43.9965
Neck  3.97569e-016 0 -2.38542e-015
Head  -27.7355 -4.52419 34.2942
R_Clavicle  3.45696 15.2804 11.5851
R_UpperArm  66.0785 27.6828 59.4973
R_Forearm  -51.0563 -8.75894 4.49884
R_Hand  -25.8738 36.124 -80.9456
L_Clavicle  -0.168903 0.109718 1.10933
L_UpperArm  -54.7035 -60.7254 45.1129
L_Forearm  -3.52761 38.1325 66.1826
L_Hand  0.856827 -10.6703 -18.1952
L_Thigh  -10.4841 49.194 14.3878
L_Calf  -20.0458 -4.8492 51.5803
L_Foot  7.25979 18.2564 7.74403
L_Toe0  0.505282 0.0370334 -6.13593
R_Thigh  2.0008 -38.129 1.64993
R_Calf  -12.3522 11.8231 40.374
R_Foot  4.92368 22.3504 -18.1009
R_Toe0  -1.78853 -0.272787 -17.3235
491
root  -25.2122 30.4667 -21.0148 -88.6797 35.5754 -43.0893
Spine  -21.8671 -31.3125 2.76641
Spine1  -31.5772 31.7114 -46.6105
Neck  3.97569e-016 0 -2.38542e-015
Head  -26.7817 -3.92733 29.6277
R_Clavicle  2.39037 14.5295 8.12333
R_UpperArm  70.0222 40.2111 49.4134
R_Forearm  -45.624 -14.7645 12.4831
R_Hand  -30.2776 34.5911 -91.931
L_Clavicle  0.724419 -4.35544 -3.41637
L_UpperArm  -41.2751 -62.9732 20.3004
L_Forearm  -3.0623 37.8551 66.278
L_Hand  1.01311 -12.3108 -16.4165
L_Thigh  -5.96109 50.276 24.9615
L_Calf  -18.928 -5.60729 53.6712
L_Foot  6.45657 16.5934 6.90731
L_Toe0  0.505282 0.0370143 -6.13593
R_Thigh  4.04018 -41.6312 5.01128
R_Calf  -12.1794 12.0474 42.5877
R_Foot  4.96308 21.8545 -16.9111
R_Toe0  -1.78853 -0.272787 -17.3235
492
root  -23.6644 29.8225 -20.2337 -100.578 42.8172 -44.6585
Spine  -25.6972 -32.6337 6.45993
Spine1  -38.3329 40.5476 -47.3824
Neck  3.97569e-016 0 -2.38542e-015
Head  -21.7838 -1.93958 25.8676
R_Clavicle  1.41585 8.84697 6.02921
R_UpperArm  68.2405 53.3431 46.2244
R_Forearm  -32.2052 -22.245 18.0384
R_Hand  -35.9983 32.9295 -104.648
L_Clavicle  1.25418 -9.03833 -4.58281
L_UpperArm  -27.7452 -62.3441 -2.09513
L_Forearm  -7.46623 38.1062 66.1908
L_Hand  0.649497 -10.3009 -15.0135
L_Thigh  -3.50411 51.4376 31.2264
L_Calf  -20.5821 -7.29167 54.8664
L_Foot  5.12814 14.6763 4.68409
L_Toe0  0.505281 0.0369951 -6.13593
R_Thigh  0.116893 -45.1169 10.0226
R_Calf  -10.484 11.9279 44.7544
R_Foot  4.67739 19.5829 -16.193
R_Toe0  -1.78853 -0.272787 -17.3235
